<svg id="Layer_1" data-name="Layer 1" xmlns="http://www.w3.org/2000/svg" viewBox="0 0 1000 1000"><defs><style>.cls-1{fill:#fff;}</style></defs><path class="cls-1" d="M518.42,511.35h-43.7v44.06h43.46v44.07h44v44h49.23c1.89,11.35,3.3,22.31,5.6,33.08,3.18,14.87,6.89,29.62,10.64,44.36,2.6,10.21-1.21,15.68-11.7,15.68q-80.25.07-160.51,0c-8.72,0-11.26-2.78-13.29-11.43q-5.92-25.32-12.76-50.42c-3.62-13.25-13.24-20-26.49-20.29-14.07-.26-28.16,1-42.25,1.52-7.67.29-15.38,1-23,.61-16-.77-26.37-9.08-29.52-24.75-2.68-13.31-3.61-27-5.55-40.42A159.47,159.47,0,0,0,298.85,573a42.73,42.73,0,0,0-18.09-25.16c-2.68-1.79-5.36-3.59-8-5.49-10-7.28-11.41-16.74-3.73-26.33,5.15-6.43,10.8-12.45,16-18.82,13.75-16.8,18.94-36,17.07-57.65-1.28-14.8-2.39-29.73-1.79-44.53,1.56-38.08,17.88-69.66,45.26-95.54,30-28.36,66.23-43.76,106.7-49.65,35.22-5.13,69.88-2.09,104.06,7.62,4.43,1.26,6.4,3,6.1,8-.49,8.17-.14,16.4-.14,25.1H518.71v44.27h43.6V378.7h43.63v44.17H562.62v43.9h-44.2ZM389.56,335.09V378.7H432.7V335.09ZM444.4,455h43.53V411.65H444.4ZM456,653.88h43.26V610.46H456ZM477.4,396c9.41,0,18.14.06,26.87,0,5.32-.06,12.9,1.68,15.37-1.07,2.84-3.16,1.33-10.4,1.41-15.87.14-8.88,0-17.76,0-26.83H477.4Z"/><path class="cls-1" d="M573.36,288.68h43.43v43.41H573.36Z"/><path class="cls-1" d="M671.59,363.91H628.42V320.28h43.17Z"/><path class="cls-1" d="M735.82,406.82H692.4V363.39h43.42Z"/><path class="cls-1" d="M631.13,459.39V416h43.36v43.44Z"/><path class="cls-1" d="M575.11,511.73V555H531.6V511.73Z"/><path class="cls-1" d="M670.65,517.05v43.4H627.32v-43.4Z"/><path class="cls-1" d="M628.35,618.55H585.14V575.06h43.21Z"/><path class="cls-1" d="M621.87,458.18v43.44H578.52V458.18Z"/><path class="cls-1" d="M658.31,602.57h43.42V646H658.31Z"/></svg>